<svg id="visual" viewBox="0 0 900 600" width="900" height="600" xmlns="http://www.w3.org/2000/svg" xmlns:xlink="http://www.w3.org/1999/xlink" version="1.1"><g transform="translate(462.88112574800283 263.16868578752775)"><path d="M93.9 -133.4C117.7 -112 130.2 -79.2 145.5 -44.4C160.7 -9.6 178.8 27.2 184.4 75.4C190 123.5 183.2 183.1 150.4 213.6C117.6 244.1 58.8 245.6 18.4 220.3C-22 195 -44.1 143 -74.7 111.8C-105.3 80.6 -144.4 70.1 -173.3 42C-202.3 13.8 -221 -32 -207.4 -65.4C-193.9 -98.8 -148.1 -119.8 -108.1 -136C-68.2 -152.2 -34.1 -163.6 0.5 -164.3C35.1 -164.9 70.1 -154.9 93.9 -133.4" fill="#FFC043"></path></g></svg>